<mxfile host="app.diagrams.net" modified="2022-12-15T18:26:14.454Z" agent="5.0 (Windows NT 10.0; Win64; x64) AppleWebKit/537.36 (KHTML, like Gecko) Chrome/108.0.0.0 Safari/537.36 Edg/108.0.1462.46" version="20.7.3" etag="tqH6Zr1XdNmFRzVP9RIn" type="github">
  <diagram id="9TuzSf66iG0sq11WkwUS" name="第 1 页">
    <mxGraphModel dx="1004" dy="1658" grid="1" gridSize="10" guides="1" tooltips="1" connect="1" arrows="1" fold="1" page="1" pageScale="1" pageWidth="850" pageHeight="1100" math="0" shadow="0">
      <root>
        <mxCell id="0" />
        <mxCell id="1" parent="0" />
        <mxCell id="tJaFMZJM_RDPEySolSqn-1" value="" style="shape=image;verticalLabelPosition=bottom;labelBackgroundColor=default;verticalAlign=top;aspect=fixed;imageAspect=0;image=data:image/jpeg,/9j/2wCEAAgGBgcGBQgHBwcJCQgKDBQNDAsLDBkSEw8UHRofHh0aHBwgJC4nICIsIxwcKDcpLDAxNDQ0Hyc5PTgyPC4zNDIBCQkJDAsMGA0NGDIhHCEyMjIyMjIyMjIyMjIyMjIyMjIyMjIyMjIyMjIyMjIyMjIyMjIyMjIyMjIyMjIyMjIyMv/AABEIARgBGAMBIgACEQEDEQH/xAGiAAABBQEBAQEBAQAAAAAAAAAAAQIDBAUGBwgJCgsQAAIBAwMCBAMFBQQEAAABfQECAwAEEQUSITFBBhNRYQcicRQygZGhCCNCscEVUtHwJDNicoIJChYXGBkaJSYnKCkqNDU2Nzg5OkNERUZHSElKU1RVVldYWVpjZGVmZ2hpanN0dXZ3eHl6g4SFhoeIiYqSk5SVlpeYmZqio6Slpqeoqaqys7S1tre4ubrCw8TFxsfIycrS09TV1tfY2drh4uPk5ebn6Onq8fLz9PX29/j5+gEAAwEBAQEBAQEBAQAAAAAAAAECAwQFBgcICQoLEQACAQIEBAMEBwUEBAABAncAAQIDEQQFITEGEkFRB2FxEyIygQgUQpGhscEJIzNS8BVictEKFiQ04SXxFxgZGiYnKCkqNTY3ODk6Q0RFRkdISUpTVFVWV1hZWmNkZWZnaGlqc3R1dnd4eXqCg4SFhoeIiYqSk5SVlpeYmZqio6Slpqeoqaqys7S1tre4ubrCw8TFxsfIycrS09TV1tfY2dri4+Tl5ufo6ery8/T19vf4+fr/2gAMAwEAAhEDEQA/APf6KKKACiiigAooooAKKKKACiiigAooooAKKKKACiiigAooooAKKKKACiiigAooooAKKKKACiiigAooooAKKKKACiiigAooooAKKKKACiiigAooooAKKKKACiiigAooooAKKKKACiiigAooooAKKKKACiiigAooooAKKKKACiiigAooooAKKKKACiiigAooooAKKKKACiiigAooooAKKKKACiiigAooooAKKKKACiiigAooooAKKKKACiiigAooooAKKKKACiiigAooooAKKKKACiiigAooooAKKKKACiiigAooooAKKKKACiiigAooooAKKKKACiiigAozRVDWNWs9D0ybUL6Xy4IhknqSewA7k04xcmox3YF7cPejP1rwTXPi1r19dk6YyafbqTtUIsjMPcsD+lP0H4t6zZ3ijWmF/ZMcNtjVHX3BGAfofzr2P7CxahzWXpfUy9tG9j3miqOlavZ61p8V9YzLLbyj5WHY5wQR2IIxV6vHlFxfK90a7hRRRSAKKKKACiiigAooooAKKK53xX4usfCmnLcXas8spKwwKeZCBk89gMjn3q6dKdWahBXbBtJXZ0O4UbhXzze/FTxVdXbzW96lpGT8sUcKEAfVgSa6Pwl8W5/tAtfEjK8Tni7RMbP95QMEe46fy9WpkeLhDnST8r6mSrRbseyUUyOVJI0eNgyMAykHIIPQ0+vHNQooooAKKKKACiiigAooooAKKKKACiiigAooooAKKKKAA9K8g+NmpThtM0wNiBladwP4mzgflz+devmvOfi34al1XRIdTtQDPYbi6+sZAJx9NoP0zXo5TOEMZBz2/wCAyKibi7HhNGT24PtR/KivvjhPZ/gnqMk2m6npzcpbypMh9N4II/8AHP1Neq1wXwq0CfRPDTzXcBiub2QSFW+8EA+UH/x44/2q72vz/M5wni5untc7qafKFFFFcBYUUUUAFFFFABRRRQAHoa+efitqM9744uLeQ/urNEijXPHKhifrlv0FfQx6V4n8X/DctvqcevwJugnRY7ggfdkUcE/VcD/gPvXs5FOEcVafVaepjWT5dDy+ijtUttbT3l1FbW0TSzSttRF6sfSvtm0tXokci1Pon4b6hLqPgXTpJuXiVoQfVUJUfoBXV/hWN4U0YaB4ZsNOOBJHFmTHOXY5b9Sa2sN/e/SvzfFOMq0nDa56EVZajqKKKwGFFFFABRRRQAUUUUAFGR60Vm63q1voWj3Wp3RPkwLuKr1Y9Ao9ycD8acYylJRjuw9TSoyK8q/4XbYf9Aa5/wC/q/4Uf8LtsO2jXP8A3+X/AAr0f7Ixv8n4oz9rE9VorG8Ma6PEmiRaolrJbRyswRJCCSASM59Mg1s1584ShJwkrNGidwooqG5uI7a2mnlOEiQux9ABk/ypJX2AmzTXG4Y6ivL1+NelNIA2lXnlH7rB0JI+h/xrqvD/AI/8PeIXWG1uzDdNwLa4Gx8+g7E/Qmuurl+JpR55QdiFUiVdU+GPhnVLtrlrN7eRjlvs77AT7r0/SnaP8NvDejXiXcNpJLPGco07lgp9h0z711+4ZxS1H13E8vJzu3a4+WO9gooormKCjNBOK5jxj4ztPCFvbSXELzyXDFUjRgDgdSc9uR+da0qU6s1CmrtibSV2dPRmvKv+F22H/QGuf+/q0f8AC7LFiAujXJJ4AEq/4V2vKcYvsP8AD/Mj2se56rRUUL+ZGrlCm5Qdp6jPrUtec002jQKKKwvFXiS28K6M2o3MTyrvEaxpgFmOe59gTVU6cqk1CCu3sDdtTdyKhureG7t3gniSWJxtZHXIYe9eb23xp0Z2C3GnX0Iz1Qq4H6iu50fxJpGvwtJpl9HcbMb1GQ6Z6blPI/EV0VsFiMP70428yFUi+pzNx8JfC1xO0i29xAGOdkUvyj6ZzitjQPBWieGpGl0+zxOwx50rb2x6A9q6IHNLUzxmJnDklN29R8kVqkA6CiiiuYoKKKKACiiigAooooAKKKKACvJfjL4gjW1t9BhkzK7ia4AP3VH3QfqefwHrXqtxNHbwyTSuEjjUuzHooAySfwr5Y1vVJda1y91KUktcSs4B/hXsPwGBXuZFhVVr+0ltH8zGtKysZ9WtO0651XUYLC0jMlxO4RFH8/oOv4VVr1P4LaP5+pX2syIdkCCGJiP425bH0UD/AL6r6nG4j6vh5VH0/M5oR5mket6PpsWkaRa6fBzHbxKgPrgcn8Tz+NXqQDFLX53KTk3KW7O+1grzb4teJ/7N0VdItZtt3ej96F6iDkH/AL6PH0zXpNcF4q+GsHinWn1KXVJoXZFQRrGGCgD6j6125fKjHEKVd2SIqXtoeAetKrFGDKSGU5Ug4Ir0jWvg5q1jAZdMvI9QxkmMx+U/4ZJB/OvOZoZbeZ4Zo2jlRiro4wVI7H3r7mhiaOJX7qSkjjcWtz0bwP8AE65066Flr91LcWT4Anclnh+vcr/Kvbop0mhjliYPG6hlZTkEHoRXyR3zXsPwj8Wz3BPh27IdYozJbSE84BGUP0B4+leDnOWRUXXpK1t0vzN6VToz1uiiivljoENfO3xL8Qpr3ip1t3D2tmvkRMp4Y5y5H48f8BBr2Xx7rJ0Lwdf3ccmydk8qEg8724yPcDJ/CvmivpuH8LdvEPpojnry6IK634d+HZPEHiu3LRZtLRhNcMenH3V98kdPTPpXJV9BfCrRv7L8Hw3Eke2e+czsT129E/8AHRn/AIEa9bNsU8Phm47vRGdKPNI7kDBzS0UV8G0dghOBXgXxV8UHWdfOnW8u6ysSVIU8NLyGP4dPz9a98brn06V5Xd/BaCeSSVNdmEkjFyZLcNkn1wwr1sprYahVdWu7dtDKqpNaHjNWLG/vNMuFuLG6mt5lGA8blTj047V1PiX4b634dVrhUF7ZKMtPAOVH+0vUfqK44Hpjmvs6dWjiIXg1Jff96OW0onufw++JEesJFpWryhdS+7HKRgXHX04Dfzr0gHPavkiCeW2njngdkljYOjLwQwOQR75r6O8B+KT4p8OrdSqq3UTmKcL0LAAhh7EHNfK5xl0aD9tS+F7+R00al9GdVRRRXgGwUUUUAFFFFABRRRQAUUUyVkjiZ5GVUUElmOAB3NCVwPNfjH4gax0eHRrd2Wa9y0rL2jU9PxOPyNeIVv8AjLxFJ4m8ST3uf9HQmK3GMbYwTj8Tkn8awK/QMswv1fDRi93q/U4qkuaTJIIZLm4jgiXdJKwRB6knAr6j8O6NBoGh2mmwAEQphnAxvbux+pzXjXwn8Mrq+vHU7mNjbWBDJxgNL1Xn2xu/Kveq8HiDFc1RUI9NzahG2oUUUV86bhRgelFFACECvN/ir4Tt7/Q5Nat40jvbTDSMBgyx8Ag+44I+h9a9JrD8Y7f+EM1rcQB9im6+uw4/WurBVZUsRCUe6/HQmavF3Pl/6VseE9VOieKtN1AtiOKYCX/cbhv0J/Ksf29OKK/Q6kVODi+q/wCAcKdmfXlI33f/AK+KZDnyUz1wM1leKtdh8OeHbvUpCpaNCIkJ++5+6Pz6+wNfmsabnPkju3Y79ldnjfxZ8Qtqnib+zY2P2bTxsIzw0h+8ce3A/A1wFTXV1Ne3c11cOZJpnZ3c9yTkn8zUNfomFoKhRjTXT+mcMm5O7Oi8D6EPEXiyzspFzbgmWb3Reo/E4H419MqqooVVAUDAAHArzX4SeGRp+jNrdxGRdXoxHnjbEDx/30Rn6AV6XXyGd4r2+I5V8Mfz6nVSjaIUUUV45qFFFFHUBGVWUhgCCMEEV4H8U/CsGh6vFqFkix2l7nMajGyQdcDoARgj8a99PSvMPjTsPhzTyceZ9r+X1xsbP9K9TJ60qeMhFbS0/Azqq8TxKvTvgvqXk63faaxO24hEi+gZD/UMfyrzGux+FpkHxC04Ju2kS78dMeW/X8cV9bmdNVMJUi+35anLT0kj6LHSijtRX58dwUE4orH8Ta9b+HNBudSnKny1/dITjzHP3V/E/pk1UISnJRirtg3ZXZr5ozXg/wDwuXxJni200e3lP/8AF0f8Ll8S/wDPvpv/AH5f/wCLr11kOMtsvvMnWie8ZozXg/8AwuXxL/z76b/35f8A+Lo/4XL4l/599N/78v8A/F0/7BxfZfeL20T3jNcP8Utfi0nwjNa8/aL/ADBGv+zxvP0xx+Nef/8AC5fEv/Pvpv8A35f/AOLrlPEfibUfFN+l3qLR7kTYiRKQijvgEnrXTgskrwrxnVtyrXcmVZNaGP8AzFHfHr096K7L4Y6Gms+MIWnh8y2tFM8mR8uRwmf+BHOO+019RiK0aFJ1JbJXOeKu7HsfgPQJPDvhO0s5j/pDEzSgDGGbt+AwPwrps1l+INZh0DRLvUrhgFhQlQxxvb+FR9TgV40PjL4k6/ZtNHt5T/8AxdfC0cFicfKVWK3et+52OcYWTPec0Zrwf/hcviX/AJ99N/78v/8AF0f8Ll8S/wDPvpv/AH5f/wCLro/sHF+X3k+2ie8ZozXg/wDwuXxL/wA++m/9+X/+Lo/4XJ4k/wCffTf+/L//ABdP+wcX2X3h7aJ7xkV5j8VPGdpbaXceHbYmS8uFAmIPEK5Bwfc+n/1q4bUfin4p1BAi3cdovcW0e3P4nJH4GuPnnluZ3nnkeWWQlnd2yzE9ya9DAZHOnUVWu1psl+pFSsmrIjrZ8J6S2t+KtOsQoZHmDPkcbF+Zv0U1jd69j+EnhKe0L6/fQmMyR7LRX6lTyX9s9B7E+texmGJWGw8pve2hlTg5M9YPSvF/jJr0dxe2miQkk237+Y9tzD5R9cEn/gQr1zVNRi0vS7q+nIWOCJpGJOBwOn9Pxr5Xvby41G+nvLqQyXEzl5GPcmvm+H8I51vbS2j+bOitKysQVoaHo9xr+s22mW2BLO+3cRkIOpY+wANZ/wBK9i+DOiKtte63LD87N5FvIw/hHLkfU4H4GvpMfio4bDyqP+m9P+Cc9OPNJHqdtBHa2sNvGMRxIqKPQAYFTZriviD41bwlYwJZiGTUJ2yiSgkKg6sQCO+B19fSvPP+Fy+Jf+ffTf8Avy//AMXXyGHyrE4mHtYpWZ1OpGOh7xmjNeD/APC5fEv/AD76b/35f/4uj/hcviX/AJ99N/78v/8AF1v/AGDi/L7yfbRPeM0Zrwf/AIXL4l/599N/78v/APF0f8Ll8S/8++m/9+X/APi6TyHGdl94/bRPdnkVEZmOAASSfSvn/wCJXjG38TajBbWGTZWZbEh/5aucZYe3HH41l6v4+8R60skdxqDxQONphtx5aY9OOSPqTXNV7GWZO8NP2tVpvpYyqVVJWQV6d8F9MabW77VSf3dvAIQPVnOc/gEP515rBbTXdxHb28TSzSMFRFGSxPAFfR/gPwv/AMIx4bjt5cfbJj5twR/ePQfgMD861zvFRpYZ00/el/TJpRbkdSOlFFFfEnYB6GvGPjNrqzXlnocZz9nH2iYg9GIIUflk/wDAhXs56V5PqPweudT1O6vpfEGXnlaQ77YkjJ4Gd3pXqZTOhSr+1rO1tvmZ1VJxtE8bor1r/hR8v/QfT/wF/wDsqP8AhR8v/QfT/wABf/sq+o/tjB/znN7KR5LRXrX/AAo+X/oPp/4C/wD2VH/Cj5f+g+v/AICf/ZUf2xg/5g9lI8lorT1/S4NG1q40+C9+2CBtjyiLYC4+8AMnp0/CsyvRhNTipLZkPR2YHpX0P8NvDaaB4Yhlbm6vws8rEcgEDan0AJ/EmvGPBnhuXxP4jgswv+jR/vbhumIwRn8T0/GvptVVVCqoAAwAO1fNcQ4m0Y4eD1er/Q3oR+0eK/GPXpZtTg0KI4ggUTy4/icg4B+gOf8AgXtXl1e0658JJtZ1y81JteZTcyl9r2+8qD0XO4cDp07CqH/Cj5f+g+n/AIC//ZV1YLMMHh6Eaal66deopwnKVzyWivWv+FHy/wDQfT/wF/8AsqP+FHy/9B9P/AX/AOyrq/tjB/zkeykeS0V61/wo+X/oPp/4C/8A2VH/AAo+X/oPr/4C/wD2VH9sYP8AnD2UjyWivYrX4JQLITe63LIn92CAIfzJP8q7bQvBHh/QUQ2mnxvMvPnzgSSZ9cnp+GK562e4aEfc95lKjLqeXeCPhhLrUa6hrYmtrMkFLcrteYe+eQv4c/rXuMUKQxJHGNqKoVQOgA6CngCoLu6hsbSa6uHEcEKF3Y9lHX+VfL4vGVcZUvL5Lp/wTojBRWh5Z8Y/EbxRQ+HYDjzVWe4Oeq5O1fzUn8BXj1a3ibWn8Q+IrzU3BCyyHy1PVUHCj64xn3rJr7bL8KsPQjHr19TkqS5pXLel2Euq6raafCQJLmVYlJ7ZOM/hX1Do+mwaNpNpp1r/AKi3jEYYjlvUn3Jyfqa8h+EHhuS51J9fnUCC2Bjgz/FIRyfoAT+JHpXr+q2TajpF3ZRTvA08TRrKnVMjGa+dz3E+0rxoJ6K1/n/wDejG0eY+cPGOuy+IfFF5eu2Y95ihUdFjUkD8+v1JrBr1r/hSEv8A0H0/8Bf/ALKj/hR8v/QfT/wF/wDsq9mnmmCpwUYy0XkZOnNu9jyWivWv+FHy/wDQfT/wF/8AsqP+FHy/9B9P/AX/AOyq/wC2MH/OL2UjyWivWv8AhR8v/QfT/wABf/sqP+FHy/8AQfT/AMBf/sqP7Ywf84eykeS1NbWtxeXSW1tBJNO5wkca7mY+wFezad8FtLhYNqGpXN0Q2dsSCJSPQ8sfyNd9pWg6Vosfl6dp9vbDGCUQbm+rdT+NcuIz+jTX7pXf3IuNFt6nE+AfhtFojW+r6mS+pBMrFxsgJ9+7Y/Afka9HAxS4or5TE4mpiantKj1OiMVFWQUUUVgUFFFFABRRRQAVjeJdZj0Hw7fag7BWiiPl5/ikPCj88Vs14h8ZNda41m30SM/urRRLIPV2HH5L/Ou7LsK8TiFDotWRUnyxueaO7SOzuxLMSSScknqabzxzj3orV8N6Ode8R2OmZIW4lAcjsg5Y/kDX305xpQcnskcW7PX/AIPaG9h4dn1GaIpJfyZTcOTGvC/mS36V6QOlRwxJBCkUShY0UKqjooHQD8Kkr87xVd4itKq+v9L8DviuVWCiiiucYUUUUAFFFFABRRRQAV5x8X9bWx8NppsUoFxeyAMo6+WvJP57R+deiscV8x+MtdfxD4ovL4nEYbyoVznEa8D8+T+NexkuF9viFN7R1/yMqsrKxg06ON5ZFjjVndztVVGSxPYU2vQvhDoi6l4nk1CUbk0+MOvp5jZC/kAxr6/FYhUKMqsuhywjzOx7B4T0j+wvDFhpzACSKIebj++eW/UmtqkAxS1+d1Juc3N7vX7zvWmgUUUVABRRRQAUUUUAFFFFABRRRQAUUUUAFFFFABRRRQtQM3XNYt9C0e61G6OIoFzjPLHoFHuSQPxr5e1HULnVdRnvruQyTzuXc+//AOrivWfjL4gRLe28Pw4MkhFxMf7o52j8Tk/gK8dr7HIMKqdB1pLWX5f1+hyVpXdgHWvZvg74ZEVlL4guYh5sxMdqSM4QfeYfU8f8B968j02wm1XU7XT7cZmuZViXPQZOMn2A5PtX1Ho2nRaRpFrp8JJS3iWMMwwWwOp+pzRn+KcKSoxesnr6BQjd3LwGBS0UV8cdYUUUUAFFFFABRRRQAUUUjHFAHE/E/wATHQPDhgtpjHfXuY4tvVUH32/DIH1Ir56rs/iZ4iXX/FckcWDbWINuhByHIJ3N+J4+gFcZX3eUYX2GGV170tWcVWV5CqCzAAEknAA719KeBPDaeGfDVvbPGq3koElyw7ue30A4FeL/AA58OnxF4qhD5FrZkXExAznDfKv4n9Aa+jsYOe9eXxBir8tCL82a0I9WLRRRXzB0BRRRQAUUUUAFFFFABRRRQAUUUUAFFFFABRRRQAVDdXEVpby3E8gjiiQyO56Ko5J/Kpq8z+MPiGSw0m30e3cBr7JnI6iMdvxP8q6MJh3iK0aUev8ATJk+WLZ49repyaxrd5qMrMxnlZxu7LngfgMCqFFSQQyXE8cES7pJGCKPUk4H61+ixUYRVtkjhd2eofBfRjLf32sSRDy4k8iJzz85OWx6EDA/4FXs4HJrL8PaLb+HtFttNth8kS/Mx6u5+8fxNatfn+Y4n6ziZVOmy9DtpxtEKKKK4iwooooAKKKKACiiigArmfH2tLofg++uBKUmlTyIcHku3p7gZP4V0rdK8D+K/iGXUvEzaZG4FrYfLgfxSEAsT644H4GvRyvC/WMTGPRav0X/AAdDOrLlicBz3oo6cV0PgnQU8R+K7SwnDG25kn290UZx+PA/Gvu6tRUqbnLZav5HGtXY9j+FmitpPg+KWaMJcXr+e3HO0jCZ/Dn8a7imqgRQqjCjgAdqdX5ziKzrVZVH1Z3pWVgooorEYUUUUAFFFFABRRRQAUUUUAFFFFABRRRQAUUUUAIwJHHWvNvGXw11LxR4hfUV1S3SHYqRxSRklAO2fqSfxr0qiujDYqrhp89J2YpRT3PFf+FI6j/0F7T/AL9NWz4X+Esmja/a6lf31vcpbEyRxpGeX7E59DyPevUaK7Kmc4ycXFy0fkiFSiuggGPpS0UV5ZoFFFFABRRRQAUUUUAFFFFADXUspCkA9jivHLr4M6td3c1xNrdtJJLI0ju0bZZickn3r2WiuvC42thW3Sdrkyipbniv/CkdR/6C9p/36auz8CeAf+EQ+1zT3MdzdT4UMikBEHOBn1PX6Cu3oravmuKrw5Jy09EhKnFO6CiiivOLCiiigAooooAKKKKACiiigAooooAKKKKACiiigAooooAKKKKACiiigAooooAKKKKACiiigAooooAKKKKACiiigAooooAKKKKACiiigAooooAKKKKACiiigAooooAKKKKACiiigAooooAKKKKACiiigAooooAKKKKACiiigAooooAKKKKACiiigAooooAKKKKACiiigAooooAKKKKACiiigAooooAKKKKACiiigAooooAKKKKACiiigAooooAKKKKACiiigAooooAKKKKACiiigAooooAKKKKACiiigAooooAKKKKACiiigAooooAKKKKACiiigAooooAKKKKACiiigAooooAKKKKACiiigAooooAKKKKACiiigAooooAKKKKACiiigAooooAKKKKACiiigAooooAKKKKACiiigD//2Q==;" vertex="1" parent="1">
          <mxGeometry x="240" y="-120" width="40" height="40" as="geometry" />
        </mxCell>
        <mxCell id="tJaFMZJM_RDPEySolSqn-17" style="edgeStyle=orthogonalEdgeStyle;rounded=0;orthogonalLoop=1;jettySize=auto;html=1;entryX=0.5;entryY=0;entryDx=0;entryDy=0;fontColor=#FFFFFF;strokeWidth=2;strokeColor=#666666;" edge="1" parent="1" source="tJaFMZJM_RDPEySolSqn-2" target="tJaFMZJM_RDPEySolSqn-14">
          <mxGeometry relative="1" as="geometry" />
        </mxCell>
        <mxCell id="tJaFMZJM_RDPEySolSqn-23" style="edgeStyle=orthogonalEdgeStyle;rounded=0;orthogonalLoop=1;jettySize=auto;html=1;entryX=0;entryY=0.5;entryDx=0;entryDy=0;fontColor=#FFFFFF;" edge="1" parent="1" source="tJaFMZJM_RDPEySolSqn-2" target="tJaFMZJM_RDPEySolSqn-13">
          <mxGeometry relative="1" as="geometry" />
        </mxCell>
        <mxCell id="tJaFMZJM_RDPEySolSqn-2" value="&lt;font style=&quot;font-size: 14px;&quot;&gt;pretrained&lt;br&gt;model&lt;/font&gt;" style="rounded=1;whiteSpace=wrap;html=1;fillColor=#dae8fc;strokeColor=#6c8ebf;" vertex="1" parent="1">
          <mxGeometry x="200" y="-80" width="120" height="60" as="geometry" />
        </mxCell>
        <mxCell id="tJaFMZJM_RDPEySolSqn-3" value="&lt;font color=&quot;#ffffff&quot;&gt;&lt;b&gt;Model Optimizier&lt;/b&gt;&lt;/font&gt;" style="rounded=1;whiteSpace=wrap;html=1;fillColor=#0000FF;" vertex="1" parent="1">
          <mxGeometry x="200" y="200" width="120" height="60" as="geometry" />
        </mxCell>
        <mxCell id="tJaFMZJM_RDPEySolSqn-30" style="edgeStyle=orthogonalEdgeStyle;rounded=0;orthogonalLoop=1;jettySize=auto;html=1;entryX=0.5;entryY=1;entryDx=0;entryDy=0;fontSize=14;fontColor=#FFFFFF;strokeColor=#666666;" edge="1" parent="1" source="tJaFMZJM_RDPEySolSqn-4" target="tJaFMZJM_RDPEySolSqn-28">
          <mxGeometry relative="1" as="geometry" />
        </mxCell>
        <mxCell id="tJaFMZJM_RDPEySolSqn-4" value="&lt;font color=&quot;#ffffff&quot;&gt;&lt;b&gt;Data&lt;/b&gt;&lt;/font&gt;" style="shape=cylinder3;whiteSpace=wrap;html=1;boundedLbl=1;backgroundOutline=1;size=15;fillColor=#6666FF;" vertex="1" parent="1">
          <mxGeometry x="510" y="290" width="60" height="70" as="geometry" />
        </mxCell>
        <mxCell id="tJaFMZJM_RDPEySolSqn-5" value="&lt;font color=&quot;#ffffff&quot;&gt;&lt;b&gt;Post Training Optimization&lt;br&gt;Tool&lt;/b&gt;&lt;/font&gt;" style="rounded=1;whiteSpace=wrap;html=1;fillColor=#0000FF;" vertex="1" parent="1">
          <mxGeometry x="480" y="200" width="120" height="60" as="geometry" />
        </mxCell>
        <mxCell id="tJaFMZJM_RDPEySolSqn-19" style="edgeStyle=orthogonalEdgeStyle;rounded=0;orthogonalLoop=1;jettySize=auto;html=1;entryX=0;entryY=0.5;entryDx=0;entryDy=0;fontColor=#FFFFFF;strokeColor=#666666;" edge="1" parent="1" source="tJaFMZJM_RDPEySolSqn-7" target="tJaFMZJM_RDPEySolSqn-15">
          <mxGeometry relative="1" as="geometry" />
        </mxCell>
        <mxCell id="tJaFMZJM_RDPEySolSqn-7" value="OpenVINO&lt;br&gt;IR model" style="rounded=1;whiteSpace=wrap;html=1;fillColor=#3399FF;" vertex="1" parent="1">
          <mxGeometry x="360" y="190" width="80" height="80" as="geometry" />
        </mxCell>
        <mxCell id="tJaFMZJM_RDPEySolSqn-21" style="edgeStyle=orthogonalEdgeStyle;rounded=0;orthogonalLoop=1;jettySize=auto;html=1;entryX=0;entryY=0.5;entryDx=0;entryDy=0;fontColor=#FFFFFF;strokeColor=#666666;" edge="1" parent="1" source="tJaFMZJM_RDPEySolSqn-8" target="tJaFMZJM_RDPEySolSqn-16">
          <mxGeometry relative="1" as="geometry" />
        </mxCell>
        <mxCell id="tJaFMZJM_RDPEySolSqn-8" value="Optimized&lt;br&gt;IR model" style="rounded=1;whiteSpace=wrap;html=1;fillColor=#3399FF;" vertex="1" parent="1">
          <mxGeometry x="640" y="190" width="80" height="80" as="geometry" />
        </mxCell>
        <mxCell id="tJaFMZJM_RDPEySolSqn-9" value="&lt;font color=&quot;#ffffff&quot;&gt;&lt;b&gt;IR Frontend&lt;/b&gt;&lt;/font&gt;" style="rounded=1;whiteSpace=wrap;html=1;fillColor=#0000FF;" vertex="1" parent="1">
          <mxGeometry x="760" y="200" width="120" height="60" as="geometry" />
        </mxCell>
        <mxCell id="tJaFMZJM_RDPEySolSqn-10" value="&lt;font style=&quot;font-size: 14px;&quot; color=&quot;#ffffff&quot;&gt;&lt;b&gt;Inference&lt;br&gt;Engine&lt;/b&gt;&lt;/font&gt;" style="rounded=1;whiteSpace=wrap;html=1;fillColor=#3333FF;" vertex="1" parent="1">
          <mxGeometry x="920" y="200" width="120" height="60" as="geometry" />
        </mxCell>
        <mxCell id="tJaFMZJM_RDPEySolSqn-29" style="edgeStyle=orthogonalEdgeStyle;rounded=0;orthogonalLoop=1;jettySize=auto;html=1;entryX=-0.006;entryY=0.168;entryDx=0;entryDy=0;entryPerimeter=0;fontSize=14;fontColor=#FFFFFF;strokeColor=#666666;" edge="1" parent="1" source="tJaFMZJM_RDPEySolSqn-11" target="tJaFMZJM_RDPEySolSqn-27">
          <mxGeometry relative="1" as="geometry" />
        </mxCell>
        <mxCell id="tJaFMZJM_RDPEySolSqn-11" value="&lt;font size=&quot;1&quot; color=&quot;#ffffff&quot;&gt;&lt;b style=&quot;font-size: 14px;&quot;&gt;Paddle Frontend&lt;/b&gt;&lt;/font&gt;" style="rounded=1;whiteSpace=wrap;html=1;fillColor=#6666FF;" vertex="1" parent="1">
          <mxGeometry x="760" y="80" width="120" height="60" as="geometry" />
        </mxCell>
        <mxCell id="tJaFMZJM_RDPEySolSqn-12" value="" style="shape=image;verticalLabelPosition=bottom;labelBackgroundColor=default;verticalAlign=top;aspect=fixed;imageAspect=0;image=data:image/jpeg,/9j/2wCEAAgGBgcGBQgHBwcJCQgKDBQNDAsLDBkSEw8UHRofHh0aHBwgJC4nICIsIxwcKDcpLDAxNDQ0Hyc5PTgyPC4zNDIBCQkJDAsMGA0NGDIhHCEyMjIyMjIyMjIyMjIyMjIyMjIyMjIyMjIyMjIyMjIyMjIyMjIyMjIyMjIyMjIyMjIyMv/AABEIARgBGAMBIgACEQEDEQH/xAGiAAABBQEBAQEBAQAAAAAAAAAAAQIDBAUGBwgJCgsQAAIBAwMCBAMFBQQEAAABfQECAwAEEQUSITFBBhNRYQcicRQygZGhCCNCscEVUtHwJDNicoIJChYXGBkaJSYnKCkqNDU2Nzg5OkNERUZHSElKU1RVVldYWVpjZGVmZ2hpanN0dXZ3eHl6g4SFhoeIiYqSk5SVlpeYmZqio6Slpqeoqaqys7S1tre4ubrCw8TFxsfIycrS09TV1tfY2drh4uPk5ebn6Onq8fLz9PX29/j5+gEAAwEBAQEBAQEBAQAAAAAAAAECAwQFBgcICQoLEQACAQIEBAMEBwUEBAABAncAAQIDEQQFITEGEkFRB2FxEyIygQgUQpGhscEJIzNS8BVictEKFiQ04SXxFxgZGiYnKCkqNTY3ODk6Q0RFRkdISUpTVFVWV1hZWmNkZWZnaGlqc3R1dnd4eXqCg4SFhoeIiYqSk5SVlpeYmZqio6Slpqeoqaqys7S1tre4ubrCw8TFxsfIycrS09TV1tfY2dri4+Tl5ufo6ery8/T19vf4+fr/2gAMAwEAAhEDEQA/APf6KKKACiiigAooooAKKKKACiiigAooooAKKKKACiiigAooooAKKKKACiiigAooooAKKKKACiiigAooooAKKKKACiiigAooooAKKKKACiiigAooooAKKKKACiiigAooooAKKKKACiiigAooooAKKKKACiiigAooooAKKKKACiiigAooooAKKKKACiiigAooooAKKKKACiiigAooooAKKKKACiiigAooooAKKKKACiiigAooooAKKKKACiiigAooooAKKKKACiiigAooooAKKKKACiiigAooooAKKKKACiiigAooooAKKKKACiiigAooooAKKKKACiiigAozRVDWNWs9D0ybUL6Xy4IhknqSewA7k04xcmox3YF7cPejP1rwTXPi1r19dk6YyafbqTtUIsjMPcsD+lP0H4t6zZ3ijWmF/ZMcNtjVHX3BGAfofzr2P7CxahzWXpfUy9tG9j3miqOlavZ61p8V9YzLLbyj5WHY5wQR2IIxV6vHlFxfK90a7hRRRSAKKKKACiiigAooooAKKK53xX4usfCmnLcXas8spKwwKeZCBk89gMjn3q6dKdWahBXbBtJXZ0O4UbhXzze/FTxVdXbzW96lpGT8sUcKEAfVgSa6Pwl8W5/tAtfEjK8Tni7RMbP95QMEe46fy9WpkeLhDnST8r6mSrRbseyUUyOVJI0eNgyMAykHIIPQ0+vHNQooooAKKKKACiiigAooooAKKKKACiiigAooooAKKKKAA9K8g+NmpThtM0wNiBladwP4mzgflz+devmvOfi34al1XRIdTtQDPYbi6+sZAJx9NoP0zXo5TOEMZBz2/wCAyKibi7HhNGT24PtR/KivvjhPZ/gnqMk2m6npzcpbypMh9N4II/8AHP1Neq1wXwq0CfRPDTzXcBiub2QSFW+8EA+UH/x44/2q72vz/M5wni5untc7qafKFFFFcBYUUUUAFFFFABRRRQAHoa+efitqM9744uLeQ/urNEijXPHKhifrlv0FfQx6V4n8X/DctvqcevwJugnRY7ggfdkUcE/VcD/gPvXs5FOEcVafVaepjWT5dDy+ijtUttbT3l1FbW0TSzSttRF6sfSvtm0tXokci1Pon4b6hLqPgXTpJuXiVoQfVUJUfoBXV/hWN4U0YaB4ZsNOOBJHFmTHOXY5b9Sa2sN/e/SvzfFOMq0nDa56EVZajqKKKwGFFFFABRRRQAUUUUAFGR60Vm63q1voWj3Wp3RPkwLuKr1Y9Ao9ycD8acYylJRjuw9TSoyK8q/4XbYf9Aa5/wC/q/4Uf8LtsO2jXP8A3+X/AAr0f7Ixv8n4oz9rE9VorG8Ma6PEmiRaolrJbRyswRJCCSASM59Mg1s1584ShJwkrNGidwooqG5uI7a2mnlOEiQux9ABk/ypJX2AmzTXG4Y6ivL1+NelNIA2lXnlH7rB0JI+h/xrqvD/AI/8PeIXWG1uzDdNwLa4Gx8+g7E/Qmuurl+JpR55QdiFUiVdU+GPhnVLtrlrN7eRjlvs77AT7r0/SnaP8NvDejXiXcNpJLPGco07lgp9h0z711+4ZxS1H13E8vJzu3a4+WO9gooormKCjNBOK5jxj4ztPCFvbSXELzyXDFUjRgDgdSc9uR+da0qU6s1CmrtibSV2dPRmvKv+F22H/QGuf+/q0f8AC7LFiAujXJJ4AEq/4V2vKcYvsP8AD/Mj2se56rRUUL+ZGrlCm5Qdp6jPrUtec002jQKKKwvFXiS28K6M2o3MTyrvEaxpgFmOe59gTVU6cqk1CCu3sDdtTdyKhureG7t3gniSWJxtZHXIYe9eb23xp0Z2C3GnX0Iz1Qq4H6iu50fxJpGvwtJpl9HcbMb1GQ6Z6blPI/EV0VsFiMP70428yFUi+pzNx8JfC1xO0i29xAGOdkUvyj6ZzitjQPBWieGpGl0+zxOwx50rb2x6A9q6IHNLUzxmJnDklN29R8kVqkA6CiiiuYoKKKKACiiigAooooAKKKKACvJfjL4gjW1t9BhkzK7ia4AP3VH3QfqefwHrXqtxNHbwyTSuEjjUuzHooAySfwr5Y1vVJda1y91KUktcSs4B/hXsPwGBXuZFhVVr+0ltH8zGtKysZ9WtO0651XUYLC0jMlxO4RFH8/oOv4VVr1P4LaP5+pX2syIdkCCGJiP425bH0UD/AL6r6nG4j6vh5VH0/M5oR5mket6PpsWkaRa6fBzHbxKgPrgcn8Tz+NXqQDFLX53KTk3KW7O+1grzb4teJ/7N0VdItZtt3ej96F6iDkH/AL6PH0zXpNcF4q+GsHinWn1KXVJoXZFQRrGGCgD6j6125fKjHEKVd2SIqXtoeAetKrFGDKSGU5Ug4Ir0jWvg5q1jAZdMvI9QxkmMx+U/4ZJB/OvOZoZbeZ4Zo2jlRiro4wVI7H3r7mhiaOJX7qSkjjcWtz0bwP8AE65066Flr91LcWT4Anclnh+vcr/Kvbop0mhjliYPG6hlZTkEHoRXyR3zXsPwj8Wz3BPh27IdYozJbSE84BGUP0B4+leDnOWRUXXpK1t0vzN6VToz1uiiivljoENfO3xL8Qpr3ip1t3D2tmvkRMp4Y5y5H48f8BBr2Xx7rJ0Lwdf3ccmydk8qEg8724yPcDJ/CvmivpuH8LdvEPpojnry6IK634d+HZPEHiu3LRZtLRhNcMenH3V98kdPTPpXJV9BfCrRv7L8Hw3Eke2e+czsT129E/8AHRn/AIEa9bNsU8Phm47vRGdKPNI7kDBzS0UV8G0dghOBXgXxV8UHWdfOnW8u6ysSVIU8NLyGP4dPz9a98brn06V5Xd/BaCeSSVNdmEkjFyZLcNkn1wwr1sprYahVdWu7dtDKqpNaHjNWLG/vNMuFuLG6mt5lGA8blTj047V1PiX4b634dVrhUF7ZKMtPAOVH+0vUfqK44Hpjmvs6dWjiIXg1Jff96OW0onufw++JEesJFpWryhdS+7HKRgXHX04Dfzr0gHPavkiCeW2njngdkljYOjLwQwOQR75r6O8B+KT4p8OrdSqq3UTmKcL0LAAhh7EHNfK5xl0aD9tS+F7+R00al9GdVRRRXgGwUUUUAFFFFABRRRQAUUUyVkjiZ5GVUUElmOAB3NCVwPNfjH4gax0eHRrd2Wa9y0rL2jU9PxOPyNeIVv8AjLxFJ4m8ST3uf9HQmK3GMbYwTj8Tkn8awK/QMswv1fDRi93q/U4qkuaTJIIZLm4jgiXdJKwRB6knAr6j8O6NBoGh2mmwAEQphnAxvbux+pzXjXwn8Mrq+vHU7mNjbWBDJxgNL1Xn2xu/Kveq8HiDFc1RUI9NzahG2oUUUV86bhRgelFFACECvN/ir4Tt7/Q5Nat40jvbTDSMBgyx8Ag+44I+h9a9JrD8Y7f+EM1rcQB9im6+uw4/WurBVZUsRCUe6/HQmavF3Pl/6VseE9VOieKtN1AtiOKYCX/cbhv0J/Ksf29OKK/Q6kVODi+q/wCAcKdmfXlI33f/AK+KZDnyUz1wM1leKtdh8OeHbvUpCpaNCIkJ++5+6Pz6+wNfmsabnPkju3Y79ldnjfxZ8Qtqnib+zY2P2bTxsIzw0h+8ce3A/A1wFTXV1Ne3c11cOZJpnZ3c9yTkn8zUNfomFoKhRjTXT+mcMm5O7Oi8D6EPEXiyzspFzbgmWb3Reo/E4H419MqqooVVAUDAAHArzX4SeGRp+jNrdxGRdXoxHnjbEDx/30Rn6AV6XXyGd4r2+I5V8Mfz6nVSjaIUUUV45qFFFFHUBGVWUhgCCMEEV4H8U/CsGh6vFqFkix2l7nMajGyQdcDoARgj8a99PSvMPjTsPhzTyceZ9r+X1xsbP9K9TJ60qeMhFbS0/Azqq8TxKvTvgvqXk63faaxO24hEi+gZD/UMfyrzGux+FpkHxC04Ju2kS78dMeW/X8cV9bmdNVMJUi+35anLT0kj6LHSijtRX58dwUE4orH8Ta9b+HNBudSnKny1/dITjzHP3V/E/pk1UISnJRirtg3ZXZr5ozXg/wDwuXxJni200e3lP/8AF0f8Ll8S/wDPvpv/AH5f/wCLr11kOMtsvvMnWie8ZozXg/8AwuXxL/z76b/35f8A+Lo/4XL4l/599N/78v8A/F0/7BxfZfeL20T3jNcP8Utfi0nwjNa8/aL/ADBGv+zxvP0xx+Nef/8AC5fEv/Pvpv8A35f/AOLrlPEfibUfFN+l3qLR7kTYiRKQijvgEnrXTgskrwrxnVtyrXcmVZNaGP8AzFHfHr096K7L4Y6Gms+MIWnh8y2tFM8mR8uRwmf+BHOO+019RiK0aFJ1JbJXOeKu7HsfgPQJPDvhO0s5j/pDEzSgDGGbt+AwPwrps1l+INZh0DRLvUrhgFhQlQxxvb+FR9TgV40PjL4k6/ZtNHt5T/8AxdfC0cFicfKVWK3et+52OcYWTPec0Zrwf/hcviX/AJ99N/78v/8AF0f8Ll8S/wDPvpv/AH5f/wCLro/sHF+X3k+2ie8ZozXg/wDwuXxL/wA++m/9+X/+Lo/4XJ4k/wCffTf+/L//ABdP+wcX2X3h7aJ7xkV5j8VPGdpbaXceHbYmS8uFAmIPEK5Bwfc+n/1q4bUfin4p1BAi3cdovcW0e3P4nJH4GuPnnluZ3nnkeWWQlnd2yzE9ya9DAZHOnUVWu1psl+pFSsmrIjrZ8J6S2t+KtOsQoZHmDPkcbF+Zv0U1jd69j+EnhKe0L6/fQmMyR7LRX6lTyX9s9B7E+texmGJWGw8pve2hlTg5M9YPSvF/jJr0dxe2miQkk237+Y9tzD5R9cEn/gQr1zVNRi0vS7q+nIWOCJpGJOBwOn9Pxr5Xvby41G+nvLqQyXEzl5GPcmvm+H8I51vbS2j+bOitKysQVoaHo9xr+s22mW2BLO+3cRkIOpY+wANZ/wBK9i+DOiKtte63LD87N5FvIw/hHLkfU4H4GvpMfio4bDyqP+m9P+Cc9OPNJHqdtBHa2sNvGMRxIqKPQAYFTZriviD41bwlYwJZiGTUJ2yiSgkKg6sQCO+B19fSvPP+Fy+Jf+ffTf8Avy//AMXXyGHyrE4mHtYpWZ1OpGOh7xmjNeD/APC5fEv/AD76b/35f/4uj/hcviX/AJ99N/78v/8AF1v/AGDi/L7yfbRPeM0Zrwf/AIXL4l/599N/78v/APF0f8Ll8S/8++m/9+X/APi6TyHGdl94/bRPdnkVEZmOAASSfSvn/wCJXjG38TajBbWGTZWZbEh/5aucZYe3HH41l6v4+8R60skdxqDxQONphtx5aY9OOSPqTXNV7GWZO8NP2tVpvpYyqVVJWQV6d8F9MabW77VSf3dvAIQPVnOc/gEP515rBbTXdxHb28TSzSMFRFGSxPAFfR/gPwv/AMIx4bjt5cfbJj5twR/ePQfgMD861zvFRpYZ00/el/TJpRbkdSOlFFFfEnYB6GvGPjNrqzXlnocZz9nH2iYg9GIIUflk/wDAhXs56V5PqPweudT1O6vpfEGXnlaQ77YkjJ4Gd3pXqZTOhSr+1rO1tvmZ1VJxtE8bor1r/hR8v/QfT/wF/wDsqP8AhR8v/QfT/wABf/sq+o/tjB/znN7KR5LRXrX/AAo+X/oPp/4C/wD2VH/Cj5f+g+v/AICf/ZUf2xg/5g9lI8lorT1/S4NG1q40+C9+2CBtjyiLYC4+8AMnp0/CsyvRhNTipLZkPR2YHpX0P8NvDaaB4Yhlbm6vws8rEcgEDan0AJ/EmvGPBnhuXxP4jgswv+jR/vbhumIwRn8T0/GvptVVVCqoAAwAO1fNcQ4m0Y4eD1er/Q3oR+0eK/GPXpZtTg0KI4ggUTy4/icg4B+gOf8AgXtXl1e0658JJtZ1y81JteZTcyl9r2+8qD0XO4cDp07CqH/Cj5f+g+n/AIC//ZV1YLMMHh6Eaal66deopwnKVzyWivWv+FHy/wDQfT/wF/8AsqP+FHy/9B9P/AX/AOyrq/tjB/zkeykeS0V61/wo+X/oPp/4C/8A2VH/AAo+X/oPr/4C/wD2VH9sYP8AnD2UjyWivYrX4JQLITe63LIn92CAIfzJP8q7bQvBHh/QUQ2mnxvMvPnzgSSZ9cnp+GK562e4aEfc95lKjLqeXeCPhhLrUa6hrYmtrMkFLcrteYe+eQv4c/rXuMUKQxJHGNqKoVQOgA6CngCoLu6hsbSa6uHEcEKF3Y9lHX+VfL4vGVcZUvL5Lp/wTojBRWh5Z8Y/EbxRQ+HYDjzVWe4Oeq5O1fzUn8BXj1a3ibWn8Q+IrzU3BCyyHy1PVUHCj64xn3rJr7bL8KsPQjHr19TkqS5pXLel2Euq6raafCQJLmVYlJ7ZOM/hX1Do+mwaNpNpp1r/AKi3jEYYjlvUn3Jyfqa8h+EHhuS51J9fnUCC2Bjgz/FIRyfoAT+JHpXr+q2TajpF3ZRTvA08TRrKnVMjGa+dz3E+0rxoJ6K1/n/wDejG0eY+cPGOuy+IfFF5eu2Y95ihUdFjUkD8+v1JrBr1r/hSEv8A0H0/8Bf/ALKj/hR8v/QfT/wF/wDsq9mnmmCpwUYy0XkZOnNu9jyWivWv+FHy/wDQfT/wF/8AsqP+FHy/9B9P/AX/AOyq/wC2MH/OL2UjyWivWv8AhR8v/QfT/wABf/sqP+FHy/8AQfT/AMBf/sqP7Ywf84eykeS1NbWtxeXSW1tBJNO5wkca7mY+wFezad8FtLhYNqGpXN0Q2dsSCJSPQ8sfyNd9pWg6Vosfl6dp9vbDGCUQbm+rdT+NcuIz+jTX7pXf3IuNFt6nE+AfhtFojW+r6mS+pBMrFxsgJ9+7Y/Afka9HAxS4or5TE4mpiantKj1OiMVFWQUUUVgUFFFFABRRRQAVjeJdZj0Hw7fag7BWiiPl5/ikPCj88Vs14h8ZNda41m30SM/urRRLIPV2HH5L/Ou7LsK8TiFDotWRUnyxueaO7SOzuxLMSSScknqabzxzj3orV8N6Ode8R2OmZIW4lAcjsg5Y/kDX305xpQcnskcW7PX/AIPaG9h4dn1GaIpJfyZTcOTGvC/mS36V6QOlRwxJBCkUShY0UKqjooHQD8Kkr87xVd4itKq+v9L8DviuVWCiiiucYUUUUAFFFFABRRRQAV5x8X9bWx8NppsUoFxeyAMo6+WvJP57R+deiscV8x+MtdfxD4ovL4nEYbyoVznEa8D8+T+NexkuF9viFN7R1/yMqsrKxg06ON5ZFjjVndztVVGSxPYU2vQvhDoi6l4nk1CUbk0+MOvp5jZC/kAxr6/FYhUKMqsuhywjzOx7B4T0j+wvDFhpzACSKIebj++eW/UmtqkAxS1+d1Juc3N7vX7zvWmgUUUVABRRRQAUUUUAFFFFABRRRQAUUUUAFFFFABRRRQtQM3XNYt9C0e61G6OIoFzjPLHoFHuSQPxr5e1HULnVdRnvruQyTzuXc+//AOrivWfjL4gRLe28Pw4MkhFxMf7o52j8Tk/gK8dr7HIMKqdB1pLWX5f1+hyVpXdgHWvZvg74ZEVlL4guYh5sxMdqSM4QfeYfU8f8B968j02wm1XU7XT7cZmuZViXPQZOMn2A5PtX1Ho2nRaRpFrp8JJS3iWMMwwWwOp+pzRn+KcKSoxesnr6BQjd3LwGBS0UV8cdYUUUUAFFFFABRRRQAUUUjHFAHE/E/wATHQPDhgtpjHfXuY4tvVUH32/DIH1Ir56rs/iZ4iXX/FckcWDbWINuhByHIJ3N+J4+gFcZX3eUYX2GGV170tWcVWV5CqCzAAEknAA719KeBPDaeGfDVvbPGq3koElyw7ue30A4FeL/AA58OnxF4qhD5FrZkXExAznDfKv4n9Aa+jsYOe9eXxBir8tCL82a0I9WLRRRXzB0BRRRQAUUUUAFFFFABRRRQAUUUUAFFFFABRRRQAVDdXEVpby3E8gjiiQyO56Ko5J/Kpq8z+MPiGSw0m30e3cBr7JnI6iMdvxP8q6MJh3iK0aUev8ATJk+WLZ49repyaxrd5qMrMxnlZxu7LngfgMCqFFSQQyXE8cES7pJGCKPUk4H61+ixUYRVtkjhd2eofBfRjLf32sSRDy4k8iJzz85OWx6EDA/4FXs4HJrL8PaLb+HtFttNth8kS/Mx6u5+8fxNatfn+Y4n6ziZVOmy9DtpxtEKKKK4iwooooAKKKKACiiigArmfH2tLofg++uBKUmlTyIcHku3p7gZP4V0rdK8D+K/iGXUvEzaZG4FrYfLgfxSEAsT644H4GvRyvC/WMTGPRav0X/AAdDOrLlicBz3oo6cV0PgnQU8R+K7SwnDG25kn290UZx+PA/Gvu6tRUqbnLZav5HGtXY9j+FmitpPg+KWaMJcXr+e3HO0jCZ/Dn8a7imqgRQqjCjgAdqdX5ziKzrVZVH1Z3pWVgooorEYUUUUAFFFFABRRRQAUUUUAFFFFABRRRQAUUUUAIwJHHWvNvGXw11LxR4hfUV1S3SHYqRxSRklAO2fqSfxr0qiujDYqrhp89J2YpRT3PFf+FI6j/0F7T/AL9NWz4X+Esmja/a6lf31vcpbEyRxpGeX7E59DyPevUaK7Kmc4ycXFy0fkiFSiuggGPpS0UV5ZoFFFFABRRRQAUUUUAFFFFADXUspCkA9jivHLr4M6td3c1xNrdtJJLI0ju0bZZickn3r2WiuvC42thW3Sdrkyipbniv/CkdR/6C9p/36auz8CeAf+EQ+1zT3MdzdT4UMikBEHOBn1PX6Cu3oravmuKrw5Jy09EhKnFO6CiiivOLCiiigAooooAKKKKACiiigAooooAKKKKACiiigAooooAKKKKACiiigAooooAKKKKACiiigAooooAKKKKACiiigAooooAKKKKACiiigAooooAKKKKACiiigAooooAKKKKACiiigAooooAKKKKACiiigAooooAKKKKACiiigAooooAKKKKACiiigAooooAKKKKACiiigAooooAKKKKACiiigAooooAKKKKACiiigAooooAKKKKACiiigAooooAKKKKACiiigAooooAKKKKACiiigAooooAKKKKACiiigAooooAKKKKACiiigAooooAKKKKACiiigAooooAKKKKACiiigAooooAKKKKACiiigAooooAKKKKACiiigAooooAKKKKACiiigAooooAKKKKACiiigAooooAKKKKACiiigD//2Q==;" vertex="1" parent="1">
          <mxGeometry x="400" y="-120" width="40" height="40" as="geometry" />
        </mxCell>
        <mxCell id="tJaFMZJM_RDPEySolSqn-13" value="&lt;font style=&quot;font-size: 14px;&quot;&gt;slim&lt;br&gt;model&lt;/font&gt;" style="rounded=1;whiteSpace=wrap;html=1;fillColor=#fff2cc;strokeColor=#d6b656;" vertex="1" parent="1">
          <mxGeometry x="360" y="-80" width="120" height="60" as="geometry" />
        </mxCell>
        <mxCell id="tJaFMZJM_RDPEySolSqn-18" style="edgeStyle=orthogonalEdgeStyle;rounded=0;orthogonalLoop=1;jettySize=auto;html=1;entryX=0;entryY=0.5;entryDx=0;entryDy=0;fontColor=#FFFFFF;strokeColor=#666666;" edge="1" parent="1" source="tJaFMZJM_RDPEySolSqn-14" target="tJaFMZJM_RDPEySolSqn-7">
          <mxGeometry relative="1" as="geometry" />
        </mxCell>
        <mxCell id="tJaFMZJM_RDPEySolSqn-14" value="&lt;font size=&quot;1&quot; color=&quot;#ffffff&quot;&gt;&lt;b style=&quot;font-size: 14px;&quot;&gt;Model Optimizier&lt;/b&gt;&lt;/font&gt;" style="rounded=1;whiteSpace=wrap;html=1;fillColor=#6666FF;" vertex="1" parent="1">
          <mxGeometry x="200" y="200" width="120" height="60" as="geometry" />
        </mxCell>
        <mxCell id="tJaFMZJM_RDPEySolSqn-20" style="edgeStyle=orthogonalEdgeStyle;rounded=0;orthogonalLoop=1;jettySize=auto;html=1;entryX=0;entryY=0.5;entryDx=0;entryDy=0;fontColor=#FFFFFF;strokeColor=#666666;" edge="1" parent="1" source="tJaFMZJM_RDPEySolSqn-15" target="tJaFMZJM_RDPEySolSqn-8">
          <mxGeometry relative="1" as="geometry" />
        </mxCell>
        <mxCell id="tJaFMZJM_RDPEySolSqn-15" value="&lt;font style=&quot;font-size: 14px;&quot; color=&quot;#ffffff&quot;&gt;&lt;b&gt;Post Training Optimization&lt;br&gt;Tool&lt;/b&gt;&lt;/font&gt;" style="rounded=1;whiteSpace=wrap;html=1;fillColor=#3333FF;" vertex="1" parent="1">
          <mxGeometry x="480" y="200" width="120" height="60" as="geometry" />
        </mxCell>
        <mxCell id="tJaFMZJM_RDPEySolSqn-22" style="edgeStyle=orthogonalEdgeStyle;rounded=0;orthogonalLoop=1;jettySize=auto;html=1;entryX=0;entryY=0.5;entryDx=0;entryDy=0;fontColor=#FFFFFF;strokeColor=#666666;" edge="1" parent="1" source="tJaFMZJM_RDPEySolSqn-16" target="tJaFMZJM_RDPEySolSqn-10">
          <mxGeometry relative="1" as="geometry">
            <Array as="points" />
          </mxGeometry>
        </mxCell>
        <mxCell id="tJaFMZJM_RDPEySolSqn-16" value="&lt;font size=&quot;1&quot; color=&quot;#ffffff&quot;&gt;&lt;b style=&quot;font-size: 14px;&quot;&gt;IR Frontend&lt;/b&gt;&lt;/font&gt;" style="rounded=1;whiteSpace=wrap;html=1;fillColor=#3333FF;" vertex="1" parent="1">
          <mxGeometry x="760" y="200" width="120" height="60" as="geometry" />
        </mxCell>
        <mxCell id="tJaFMZJM_RDPEySolSqn-24" value="" style="endArrow=classic;html=1;rounded=0;fontColor=#FFFFFF;strokeWidth=2;strokeColor=#666666;exitX=0.673;exitY=1.027;exitDx=0;exitDy=0;exitPerimeter=0;" edge="1" parent="1" source="tJaFMZJM_RDPEySolSqn-2">
          <mxGeometry width="50" height="50" relative="1" as="geometry">
            <mxPoint x="280" y="20" as="sourcePoint" />
            <mxPoint x="760" y="120" as="targetPoint" />
            <Array as="points">
              <mxPoint x="280" y="120" />
            </Array>
          </mxGeometry>
        </mxCell>
        <mxCell id="tJaFMZJM_RDPEySolSqn-25" value="" style="endArrow=classic;html=1;rounded=0;fontColor=#FFFFFF;exitX=0.5;exitY=1;exitDx=0;exitDy=0;dashed=1;strokeWidth=2;strokeColor=#999999;" edge="1" parent="1" source="tJaFMZJM_RDPEySolSqn-13">
          <mxGeometry width="50" height="50" relative="1" as="geometry">
            <mxPoint x="560" y="60" as="sourcePoint" />
            <mxPoint x="760" y="100" as="targetPoint" />
            <Array as="points">
              <mxPoint x="420" y="100" />
            </Array>
          </mxGeometry>
        </mxCell>
        <mxCell id="tJaFMZJM_RDPEySolSqn-34" value="&lt;font style=&quot;font-size: 16px;&quot; color=&quot;#ff0000&quot;&gt;&lt;b&gt;X&lt;/b&gt;&lt;/font&gt;" style="edgeLabel;html=1;align=center;verticalAlign=middle;resizable=0;points=[];fontSize=14;fontColor=#FFFFFF;" vertex="1" connectable="0" parent="tJaFMZJM_RDPEySolSqn-25">
          <mxGeometry x="-0.302" y="-1" relative="1" as="geometry">
            <mxPoint x="-67" y="-41" as="offset" />
          </mxGeometry>
        </mxCell>
        <mxCell id="tJaFMZJM_RDPEySolSqn-26" value="&lt;font size=&quot;1&quot; color=&quot;#ffffff&quot;&gt;&lt;b style=&quot;font-size: 14px;&quot;&gt;IR Frontend&lt;/b&gt;&lt;/font&gt;" style="rounded=1;whiteSpace=wrap;html=1;fillColor=#6666FF;" vertex="1" parent="1">
          <mxGeometry x="760" y="200" width="120" height="60" as="geometry" />
        </mxCell>
        <mxCell id="tJaFMZJM_RDPEySolSqn-27" value="&lt;font style=&quot;font-size: 14px;&quot; color=&quot;#ffffff&quot;&gt;&lt;b&gt;Inference&lt;br&gt;Engine&lt;/b&gt;&lt;/font&gt;" style="rounded=1;whiteSpace=wrap;html=1;fillColor=#6666FF;" vertex="1" parent="1">
          <mxGeometry x="920" y="80" width="120" height="180" as="geometry" />
        </mxCell>
        <mxCell id="tJaFMZJM_RDPEySolSqn-28" value="&lt;font style=&quot;font-size: 14px;&quot; color=&quot;#ffffff&quot;&gt;&lt;b&gt;Post Training Optimization&lt;br&gt;Tool&lt;/b&gt;&lt;/font&gt;" style="rounded=1;whiteSpace=wrap;html=1;fillColor=#6666FF;" vertex="1" parent="1">
          <mxGeometry x="480" y="200" width="120" height="60" as="geometry" />
        </mxCell>
        <mxCell id="tJaFMZJM_RDPEySolSqn-39" value="" style="rounded=0;whiteSpace=wrap;html=1;fontSize=16;fontColor=#FF0000;fillColor=none;dashed=1;" vertex="1" parent="1">
          <mxGeometry x="160" y="40" width="920" height="340" as="geometry" />
        </mxCell>
      </root>
    </mxGraphModel>
  </diagram>
</mxfile>
